<svg width="1134" height="216" viewBox="0 0 1134 216" fill="none" xmlns="http://www.w3.org/2000/svg">
<path d="M117.818 25.2471H137.454V53.2988H89.7666V39.2725H44.8828V89.7666H117.818V115.013H137.454V190.753H117.818V216H22.4414V193.559H0V168.312H44.8828V179.532H89.7666V129.039H22.4414V103.792H0V25.2471H22.4414V0H117.818V25.2471ZM210.39 179.532H300.156V216H162.701V0H210.39V179.532ZM443.221 25.2471H468.468V216H420.779V126.233H373.091V216H325.402V25.2471H350.649V0H443.221V25.2471ZM605.922 25.2471H628.363V89.7666H605.922V115.013H628.363V193.559H605.922V216H490.909V0H605.922V25.2471ZM712.52 89.7666H760.208V0H805.091V216H760.208V126.233H712.52V216H664.831V0H712.52V89.7666ZM878.026 179.532H920.104V0H970.598V193.559H945.351V216H852.779V193.559H830.338V0H878.026V179.532ZM1110.86 25.2471H1133.3V89.7666H1110.86V115.013H1133.3V193.559H1110.86V216H993.039V0H1110.86V25.2471ZM530.183 120.623V176.728H580.676V120.623H530.183ZM1035.12 176.728H1085.61V120.623H1035.12V176.728ZM373.091 92.5713H423.584V36.4678H373.091V92.5713ZM530.183 92.5713H580.676V36.4678H530.183V92.5713ZM1035.12 92.5713H1085.61V36.4678H1035.12V92.5713Z" fill="#FAFAFA"/>
<path d="M712.52 89.7666H760.208V0H805.091V216H760.208V126.233H712.52V216H664.831V0H712.52V89.7666ZM878.026 179.532H920.104V0H970.598V193.559H945.351V216H852.779V193.559H830.338V0H878.026V179.532ZM1110.86 25.2471H1133.3V89.7666H1110.86V115.013H1133.3V193.559H1110.86V216H993.039V0H1110.86V25.2471ZM1035.12 120.623V176.728H1085.61V120.623H1035.12ZM1035.12 92.5713H1085.61V36.4678H1035.12V92.5713Z" fill="#FBAC00"/>
</svg>
